Coordinates
version=1
nRows=14
nColumns=40
inDegrees=yes

Units are S.I. units (second, meters, Newtons, ...)
Angles are in degrees.

endheader
time	pelvis_tilt	pelvis_list	pelvis_rotation	pelvis_tx	pelvis_ty	pelvis_tz	hip_flexion_r	hip_adduction_r	hip_rotation_r	knee_angle_r	knee_angle_r_beta	ankle_angle_r	subtalar_angle_r	mtp_angle_r	hip_flexion_l	hip_adduction_l	hip_rotation_l	knee_angle_l	knee_angle_l_beta	ankle_angle_l	subtalar_angle_l	mtp_angle_l	lumbar_extension	lumbar_bending	lumbar_rotation	arm_flex_r	arm_add_r	arm_rot_r	elbow_flex_r	pro_sup_r	wrist_flex_r	wrist_dev_r	arm_flex_l	arm_add_l	arm_rot_l	elbow_flex_l	pro_sup_l	wrist_flex_l	wrist_dev_l
     46.32500000	     -6.52267422	     -5.41446147	    -10.98533734	      0.92951061	      0.92738597	      0.46708784	     25.39074352	      1.64362214	     -8.48428518	     19.17195846	     19.17195846	      5.71090630	      4.86509744	      1.48858048	      5.44256894	     -5.46986006	    -13.45983907	     17.27011512	     17.27011512	     18.75218154	    -15.35859743	      4.74811020	    -11.33291447	      9.16026024	      1.48258271	    -15.22492183	    -10.63761069	    -22.57710398	     22.57197417	     46.93401170	      0.00000000	      0.00000000	     33.61213763	    -25.33763513	     -7.52643024	     71.24710862	     48.01477335	      0.00000000	      0.00000000
     46.34407143	     -6.51110689	     -5.18896896	    -11.50347994	      0.93076454	      0.92590144	      0.47062309	     24.87378893	      1.90967123	     -8.74746638	     17.09710281	     17.09710281	      5.36439028	      6.62992843	      2.47242928	      4.56976631	     -5.31638274	    -14.08778825	     16.77246909	     16.77246909	     19.02326054	    -15.10441804	      4.32513270	    -11.12787074	      9.02465012	      1.49811345	    -15.77020871	    -10.87750445	    -22.60496236	     22.91034280	     46.91715171	      0.00000000	      0.00000000	     34.78548929	    -25.66019032	     -7.97211775	     72.17899419	     48.06965148	      0.00000000	      0.00000000
     46.36314286	     -6.44989177	     -4.91371254	    -11.97975298	      0.93229101	      0.92436899	      0.47432235	     24.59011177	      2.02348915	     -8.92590556	     16.16187111	     16.16187111	      5.19425614	      7.87234516	      2.93566807	      3.67754797	     -5.11508410	    -14.75792784	     16.34327225	     16.34327225	     19.31066497	    -14.73909918	      3.84694116	    -10.95863318	      8.80828710	      1.53887713	    -16.08303511	    -11.02592878	    -22.62894284	     23.42564306	     46.89266066	      0.00000000	      0.00000000	     35.84372387	    -25.81656634	     -8.48875272	     73.10362501	     48.12785127	      0.00000000	      0.00000000
     46.38221429	     -6.36947514	     -4.74890563	    -12.41818635	      0.93420022	      0.92296757	      0.47825054	     24.44820082	      2.17477697	     -8.99496470	     16.13993769	     16.13993769	      5.13389530	      8.57149011	      2.70425563	      2.70555895	     -5.04838406	    -15.51621882	     15.88820215	     15.88820215	     19.50872217	    -14.19838269	      3.12272848	    -10.81940147	      8.77741420	      1.66241176	    -16.48990460	    -11.25638533	    -22.64672615	     24.48089207	     46.84091484	      0.00000000	      0.00000000	     36.54959121	    -25.73224496	     -9.40201153	     74.18970515	     48.21130458	      0.00000000	      0.00000000
     46.40128571	     -6.34194198	     -4.62673713	    -12.74662786	      0.93624452	      0.92164722	      0.48238878	     24.37410761	      2.41509747	     -8.55662859	     16.53108787	     16.53108787	      4.69166448	      8.03123098	      1.00887873	      1.93766446	     -5.08972905	    -16.13064183	     15.71761023	     15.71761023	     19.66361787	    -13.78321934	      2.33732114	    -10.62320734	      8.79621818	      1.55890559	    -16.74700048	    -11.43235527	    -22.44101299	     26.08962370	     46.74394154	      0.00000000	      0.00000000	     36.99643492	    -25.60523177	    -10.70192866	     75.18077150	     48.31160309	      0.00000000	      0.00000000
     46.42035714	     -6.24060076	     -4.50313469	    -12.98646400	      0.93853847	      0.92073365	      0.48662264	     24.35949796	      2.54297815	     -8.16481733	     17.57149877	     17.57149877	      4.86676655	      7.45461961	      0.26787421	      1.06170640	     -5.06271090	    -16.46519282	     15.48006873	     15.48006873	     19.88218418	    -13.59988054	      2.33235894	    -10.45947976	      8.79555137	      1.54902062	    -16.43301207	    -11.62792082	    -22.36471865	     26.34506267	     46.72907905	      0.00000000	      0.00000000	     37.55801366	    -25.65022505	    -10.91877158	     75.49214155	     48.33351355	      0.00000000	      0.00000000
     46.43942857	     -6.14880864	     -4.45740591	    -13.14154410	      0.94102562	      0.92011122	      0.49105736	     24.27515729	      2.74411714	     -7.69748349	     18.72922869	     18.72922869	      5.13876978	      6.61111261	     -0.46995819	      0.24043852	     -5.16111481	    -16.75390291	     15.36685054	     15.36685054	     20.06450865	    -13.39651903	      2.37271666	    -10.28730006	      8.88879949	      1.51547946	    -16.01571730	    -11.81334098	    -22.32059736	     26.60647859	     46.71769560	      0.00000000	      0.00000000	     37.94578834	    -25.54477623	    -11.13499181	     75.76997212	     48.35389622	      0.00000000	      0.00000000
     46.45850000	     -6.09659186	     -4.33576677	    -13.21571306	      0.94347625	      0.91967866	      0.49572423	     24.22175691	      3.01586692	     -6.54772707	     19.88560365	     19.88560365	      5.07382947	      4.47542819	     -2.06956035	     -0.40847625	     -5.29280938	    -17.24944624	     15.46244125	     15.46244125	     20.33809990	    -12.73762954	      2.60040765	    -10.06273793	      8.86537933	      1.45204073	    -15.51653368	    -11.92651533	    -22.15918093	     27.09130898	     46.68519704	      0.00000000	      0.00000000	     38.00125971	    -25.29122171	    -11.93885999	     76.27682635	     48.41028060	      0.00000000	      0.00000000
     46.47757143	     -6.07645247	     -4.35984161	    -13.14698811	      0.94599693	      0.91976430	      0.50033731	     23.81171233	      3.23679768	     -6.39007538	     20.50967744	     20.50967744	      5.50830136	      4.18659948	     -2.39930467	     -0.95694645	     -5.56796595	    -17.30601628	     15.64065760	     15.64065760	     20.21263111	    -12.74050907	      2.70233125	     -9.80833312	      8.98657529	      1.35088998	    -14.96628459	    -12.02901486	    -22.13462166	     27.30969682	     46.67865475	      0.00000000	      0.00000000	     38.08199796	    -25.01179931	    -11.87983831	     76.34690093	     48.40733358	      0.00000000	      0.00000000
     46.49664286	     -5.83758912	     -4.19811855	    -13.04172197	      0.94829632	      0.91995867	      0.50500417	     23.65169895	      3.29590512	     -5.63786553	     21.90111131	     21.90111131	      5.99109520	      2.65673855	     -2.92139167	     -1.48375590	     -5.69806065	    -17.44881921	     16.23095304	     16.23095304	     20.27759004	    -12.51224340	      2.80767578	     -9.87207589	      8.84952810	      1.21988689	    -14.26122527	    -12.12062919	    -22.06709009	     27.60470704	     46.66572453	      0.00000000	      0.00000000	     38.23605198	    -24.90000172	    -12.15290353	     76.46915084	     48.42599787	      0.00000000	      0.00000000
     46.51571429	     -5.76153666	     -4.17417403	    -12.81034518	      0.95043653	      0.92053537	      0.50966660	     23.15356511	      3.48497697	     -5.36530777	     22.36693214	     22.36693214	      6.42266459	      1.84065334	     -3.08076516	     -1.69216385	     -6.07766736	    -17.41582731	     17.05434999	     17.05434999	     20.11956783	    -12.47638778	      2.88007061	     -9.79562890	      8.84459119	      1.14637902	    -13.51599570	    -12.21515901	    -22.00208238	     27.88284738	     46.65439406	      0.00000000	      0.00000000	     38.09762648	    -24.56867622	    -12.20556406	     76.46694717	     48.42633485	      0.00000000	      0.00000000
     46.53478571	     -5.72088174	     -4.17184999	    -12.52113454	      0.95228153	      0.92121325	      0.51433199	     22.61566659	      3.70453447	     -5.14925231	     22.62117429	     22.62117429	      6.87063821	      1.08475861	     -3.05890123	     -1.55222756	     -6.61240158	    -17.32261266	     18.42812189	     18.42812189	     19.93373590	    -12.55384455	      2.82395263	     -9.68911157	      8.87170683	      0.99231014	    -12.74565225	    -12.30029227	    -21.90602334	     28.14861500	     46.64101746	      0.00000000	      0.00000000	     37.95312366	    -24.24187757	    -12.26742955	     76.39756787	     48.42538584	      0.00000000	      0.00000000
     46.55385714	     -5.67578273	     -4.18182073	    -12.17222822	      0.95388299	      0.92211167	      0.51893319	     21.95250206	      3.88988938	     -5.17839521	     22.59135926	     22.59135926	      7.32057705	      0.74586381	     -2.92780624	     -1.22570586	     -7.21674420	    -17.09969629	     20.07781261	     20.07781261	     19.57267507	    -12.75562235	      2.63090772	     -9.61013849	      8.84754924	      0.87933067	    -11.96551943	    -12.40318200	    -21.78867569	     28.39633603	     46.62701070	      0.00000000	      0.00000000	     37.69329213	    -23.80399242	    -12.20872535	     76.22030077	     48.41369266	      0.00000000	      0.00000000
     46.57292857	     -5.62417735	     -4.20647116	    -11.76376453	      0.95518591	      0.92308276	      0.52342307	     21.21647993	      4.05514167	     -5.38450162	     22.37238672	     22.37238672	      7.76899429	      0.65555915	     -2.74403327	     -0.64887757	     -7.90769197	    -16.73071830	     22.12396627	     22.12396627	     19.03222868	    -13.14078346	      2.24380057	     -9.56729201	      8.82688387	      0.81762338	    -11.16350493	    -12.51493290	    -21.64317285	     28.63513796	     46.61156577	      0.00000000	      0.00000000	     37.37915672	    -23.29414605	    -12.06598187	     75.93567402	     48.39407592	      0.00000000	      0.00000000
